<svg width="367" height="478" viewBox="0 0 367 478" fill="none" xmlns="http://www.w3.org/2000/svg">
<path d="M366.595 368.217C361.175 339.802 331.365 402.664 322.897 396.945C314.428 391.225 369.576 313.006 351.351 306.595C333.127 300.183 322.897 371.677 312.829 367.381C302.762 363.085 350.836 262.667 329.455 259.154C328.423 258.974 327.363 259.019 326.352 259.285C307.382 264.234 300.973 343.798 298.697 336.955C296.299 329.747 295.851 281.849 280.459 293.092C265.066 304.336 283.413 391.186 270.405 387.647C257.397 384.109 258.373 314.456 247.763 333.808C237.154 353.16 239.335 414.874 261.828 436.537C262.627 437.308 310.729 437.216 312.098 437.269C328.994 437.83 371.595 394.516 366.595 368.217Z" fill="#E4E4E4"/>
<path d="M231.869 212.706C223.401 198.969 179.716 223.349 169.865 222.33C160.015 221.312 145.652 161.322 132.522 163.254C119.392 165.187 134.107 237.687 160.326 245.313C186.545 252.939 241.896 229.029 231.869 212.706Z" fill="#AA3766"/>
<path d="M287.45 0.143291L12.7825 46.1476C10.0143 46.6163 7.5516 48.1232 5.93384 50.3382C4.31609 52.5532 3.67511 55.2958 4.1513 57.9653L33.4324 220.319C33.9193 222.973 35.473 225.336 37.7561 226.893C40.0392 228.45 42.8676 229.077 45.6272 228.637L320.349 182.672C323.119 182.2 325.581 180.69 327.199 178.473C328.816 176.256 329.457 173.512 328.981 170.841L299.713 8.4875C299.226 5.81814 297.664 3.44268 295.366 1.87943C293.069 0.316174 290.223 -0.307939 287.45 0.143291V0.143291Z" fill="#C6C6C6"/>
<path d="M283.426 0.82244L8.77173 46.8659C6.01898 47.3384 3.56999 48.8364 1.95466 51.0358C0.339328 53.2353 -0.312406 55.9593 0.140519 58.6184L29.4081 220.972C29.8978 223.638 31.4621 226.009 33.7596 227.568C36.0571 229.126 38.9011 229.745 41.6707 229.29L316.339 183.299C319.105 182.827 321.566 181.319 323.183 179.105C324.8 176.891 325.442 174.15 324.97 171.481L295.689 9.12752C295.199 6.4621 293.634 4.09196 291.336 2.53558C289.038 0.979202 286.194 0.363248 283.426 0.82244Z" fill="#F9FBFF"/>
<path d="M85.4987 48.888L22.1813 59.4939L27.7964 90.6281L91.1138 80.0223L85.4987 48.888Z" fill="#005AEE"/>
<path d="M24.9773 75.0977C27.2198 72.9791 29.9005 71.3398 32.8445 70.2868C35.7886 69.2338 38.9299 68.7907 42.0636 68.9864C52.5376 69.7699 53.8384 76.1293 71.3718 65.7741C76.4665 62.7576 87.9567 62.5487 87.9567 62.5487L91.1139 80.0598L27.7957 90.6632L24.9773 75.0977Z" fill="#E6E6E6"/>
<path d="M64.0278 68.5556C64.279 69.9624 64.0919 71.4095 63.4901 72.7139C62.8883 74.0183 61.8989 75.1216 60.6467 75.8843C59.3946 76.647 57.9361 77.0349 56.4553 76.9991C54.9745 76.9633 53.5379 76.5053 52.3271 75.683C51.1162 74.8607 50.1855 73.711 49.6523 72.3791C49.1192 71.0473 49.0078 69.593 49.3319 68.2C49.656 66.8071 50.4012 65.538 51.4734 64.5531C52.5456 63.5682 53.8967 62.9116 55.3559 62.6663C56.3267 62.5032 57.3214 62.5262 58.2829 62.734C59.2444 62.9418 60.154 63.3303 60.9595 63.8774C61.765 64.4244 62.4507 65.1192 62.9772 65.9219C63.5037 66.7247 63.8607 67.6197 64.0278 68.5556V68.5556Z" fill="#FFB0B0"/>
<path d="M111.674 88.1903L29.8408 101.898L47.6513 200.652L129.485 186.945L111.674 88.1903Z" fill="white"/>
<path d="M92.7941 154.636C92.7941 154.636 118.647 154.701 124.27 160.172C130.747 166.466 130.571 195.09 130.571 195.09L45.9795 209.258C45.9795 209.258 36.2373 183.024 39.8144 175.059C43.1883 167.511 68.269 156.921 68.269 156.921L92.7941 154.636Z" fill="#E0E0E0"/>
<path d="M86.0758 122.9L87.2372 122.705C87.8391 122.604 88.4579 122.738 88.9575 123.077C89.4571 123.416 89.7965 123.932 89.9011 124.512L90.6831 128.848C90.7877 129.428 90.6489 130.024 90.2973 130.506C89.9456 130.987 89.41 131.314 88.8081 131.415L87.6467 131.61L86.0805 122.926L86.0758 122.9Z" fill="#FFCB05"/>
<path d="M85.8841 135.145L67.6084 138.206L71.5575 160.103L89.8332 157.042L85.8841 135.145Z" fill="#FFCB05"/>
<path d="M83.0247 110.577C83.0247 110.577 83.0248 107.221 78.7566 105.106C75.3962 103.46 64.7054 103.682 60.7624 108.84C54.3534 117.211 59.692 128.558 63.4724 132.841C67.2528 137.124 82.3879 121.468 83.0247 110.577Z" fill="#311E69"/>
<path d="M86.4527 138.078L68.1741 141.146L69.109 146.278C71.0195 147.454 74.3527 149.935 76.6833 149.543C79.4042 149.107 82.0928 148.501 84.7319 147.728C85.7811 146.329 86.6672 144.822 87.3741 143.236L86.4527 138.078Z" fill="#311E69"/>
<path d="M82.3878 115.056L63.9194 118.151C62.8075 118.671 61.9011 119.526 61.3366 120.586C60.7721 121.645 60.5801 122.853 60.7894 124.027L62.9981 136.276C63.4934 139.033 64.9864 141.531 67.212 143.327L72.3203 146.736C72.894 147.195 73.5643 147.528 74.2849 147.713C75.0055 147.898 75.7591 147.93 76.4937 147.806L78.7158 147.441L80.938 147.062C81.6722 146.94 82.3701 146.665 82.9831 146.257C83.5961 145.849 84.1096 145.317 84.488 144.698L88.0923 139.828C89.5665 137.417 90.0997 134.579 89.5963 131.823L87.3877 119.574C87.179 118.399 86.5776 117.322 85.675 116.506C84.7725 115.69 83.6182 115.181 82.3878 115.056V115.056Z" fill="#FFCB05"/>
<path d="M87.347 119.574C87.3027 119.332 87.2439 119.092 87.1709 118.856C86.9616 119.106 86.8342 119.411 86.8051 119.731C86.8051 120.749 88.3362 130.961 88.2413 132.554C88.1465 134.147 85.4501 139.462 84.488 141.133C84.0865 141.954 83.4916 142.674 82.7505 143.234C82.0095 143.794 81.1429 144.179 80.2199 144.359C79.0592 144.506 77.9453 144.894 76.9543 145.495C75.5994 146.083 74.2444 145.586 72.1983 144.973C69.5542 143.741 67.0364 142.272 64.6782 140.585C65.3562 141.618 66.1974 142.544 67.1714 143.327L72.2796 146.735C72.8533 147.194 73.5236 147.528 74.2442 147.713C74.9648 147.898 75.7184 147.93 76.453 147.806L78.6752 147.441L80.8974 147.062C81.6316 146.94 82.3294 146.665 82.9424 146.257C83.5554 145.849 84.069 145.317 84.4474 144.698L88.0516 139.828C89.5258 137.417 90.059 134.579 89.5556 131.823L87.347 119.574Z" fill="#AD263D"/>
<path d="M64.6097 135.508L63.4483 135.703C62.8464 135.804 62.2276 135.67 61.728 135.331C61.2285 134.992 60.8891 134.476 60.7845 133.896L60.0049 129.573C59.9003 128.993 60.039 128.397 60.3906 127.915C60.7422 127.434 61.2779 127.107 61.8798 127.006L63.0412 126.812L64.6074 135.496L64.6097 135.508Z" fill="#FFCB05"/>
<path d="M83.1194 106.346C80.4095 106.411 77.2795 107.73 77.9299 112.17C72.51 111.739 63.0251 114.429 61.0197 118.059C57.9439 123.426 61.0197 125.333 61.0197 125.333C64.0303 125.559 67.0451 124.947 69.7052 123.57C72.9707 121.899 78.8513 119 81.9 117.041C83.6479 119.209 86.2359 124.51 87.6316 125.398C89.3524 126.495 88.6613 117.563 88.1058 114.468C87.5502 111.374 87.1302 106.242 83.1194 106.346Z" fill="#311E69"/>
<path d="M65.437 122.904C64.6866 125.213 63.7814 127.472 62.727 129.668C62.036 130.556 60.6403 125.751 60.3422 123.975C60.0441 122.199 59.2312 119.431 61.372 118.752C63.1742 118.203 65.6809 118.503 65.437 122.904Z" fill="#311E69"/>
<path d="M88.4445 149.451C88.4445 149.451 85.8837 156.451 80.7212 157.404C75.5587 158.357 70.0575 151.88 70.0575 151.88L64.9357 159.376L75.098 166.675L81.3851 162.523L89.515 164.259L94.9349 155.524L88.4445 149.451Z" fill="white"/>
<path d="M304.61 133.608L149.916 159.208L155.051 188.024L309.744 162.424L304.61 133.608Z" fill="white"/>
<path d="M151.682 156.699L149.026 157.138L153.195 180.537L155.851 180.098L151.682 156.699Z" fill="#005AEE"/>
<path d="M153.817 156.158L152.776 156.333L156.976 179.619L158.017 179.444L153.817 156.158Z" fill="#005AEE"/>
<path d="M157.035 155.583L155.046 155.916L159.246 179.202L161.235 178.869L157.035 155.583Z" fill="#005AEE"/>
<path d="M160.547 155.022L157.903 155.465L162.103 178.751L164.746 178.309L160.547 155.022Z" fill="#005AEE"/>
<path d="M162.912 154.615L161.871 154.789L166.071 178.076L167.112 177.901L162.912 154.615Z" fill="#005AEE"/>
<path d="M168.256 153.721L167.214 153.895L171.414 177.182L172.455 177.007L168.256 153.721Z" fill="#005AEE"/>
<path d="M170.343 153.419L169.302 153.593L173.502 176.879L174.543 176.705L170.343 153.419Z" fill="#005AEE"/>
<path d="M175.207 152.514L173.512 152.798L177.712 176.084L179.407 175.8L175.207 152.514Z" fill="#005AEE"/>
<path d="M177.155 152.261L176.114 152.435L180.313 175.722L181.355 175.547L177.155 152.261Z" fill="#005AEE"/>
<path d="M166.087 154.192L164.098 154.525L168.293 177.812L170.282 177.479L166.087 154.192Z" fill="#005AEE"/>
<path d="M183.239 151.246L182.198 151.42L186.397 174.707L187.438 174.532L183.239 151.246Z" fill="#005AEE"/>
<path d="M186.415 150.787L184.426 151.12L188.621 174.407L190.61 174.074L186.415 150.787Z" fill="#005AEE"/>
<path d="M189.968 150.058L187.325 150.5L191.525 173.787L194.168 173.344L189.968 150.058Z" fill="#005AEE"/>
<path d="M192.331 149.716L191.29 149.89L195.49 173.177L196.531 173.002L192.331 149.716Z" fill="#005AEE"/>
<path d="M197.677 148.819L196.636 148.994L200.836 172.28L201.877 172.106L197.677 148.819Z" fill="#005AEE"/>
<path d="M201.867 148.113L200.825 148.287L205.025 171.574L206.066 171.399L201.867 148.113Z" fill="#005AEE"/>
<path d="M204.599 147.706L202.904 147.99L207.099 171.277L208.795 170.993L204.599 147.706Z" fill="#005AEE"/>
<path d="M206.563 147.335L205.522 147.51L209.721 170.796L210.763 170.622L206.563 147.335Z" fill="#005AEE"/>
<path d="M195.508 149.258L193.519 149.591L197.714 172.878L199.703 172.545L195.508 149.258Z" fill="#005AEE"/>
<path d="M210.66 146.516L208.017 146.959L212.217 170.245L214.86 169.802L210.66 146.516Z" fill="#005AEE"/>
<path d="M212.996 146.213L211.955 146.388L216.155 169.674L217.196 169.5L212.996 146.213Z" fill="#005AEE"/>
<path d="M216.217 145.664L214.228 145.997L218.427 169.283L220.416 168.95L216.217 145.664Z" fill="#005AEE"/>
<path d="M219.755 144.998L217.112 145.441L221.312 168.728L223.955 168.285L219.755 144.998Z" fill="#005AEE"/>
<path d="M222.078 144.735L221.036 144.909L225.236 168.196L226.277 168.021L222.078 144.735Z" fill="#005AEE"/>
<path d="M227.408 143.867L226.366 144.042L230.566 167.328L231.607 167.154L227.408 143.867Z" fill="#005AEE"/>
<path d="M229.497 143.545L228.455 143.719L232.651 167.006L233.692 166.832L229.497 143.545Z" fill="#005AEE"/>
<path d="M234.386 142.632L232.691 142.916L236.891 166.202L238.586 165.918L234.386 142.632Z" fill="#005AEE"/>
<path d="M236.308 142.388L235.267 142.562L239.462 165.85L240.504 165.675L236.308 142.388Z" fill="#005AEE"/>
<path d="M225.309 144.133L223.32 144.467L227.52 167.753L229.509 167.42L225.309 144.133Z" fill="#005AEE"/>
<path d="M240.068 141.68L237.425 142.122L241.625 165.409L244.268 164.966L240.068 141.68Z" fill="#005AEE"/>
<path d="M242.418 141.338L241.376 141.512L245.576 164.798L246.617 164.624L242.418 141.338Z" fill="#005AEE"/>
<path d="M245.636 140.723L243.647 141.056L247.846 164.343L249.836 164.009L245.636 140.723Z" fill="#005AEE"/>
<path d="M249.24 139.723L246.584 140.163L250.754 163.562L253.41 163.122L249.24 139.723Z" fill="#005AEE"/>
<path d="M251.488 139.858L250.447 140.033L254.642 163.32L255.684 163.145L251.488 139.858Z" fill="#005AEE"/>
<path d="M256.886 138.78L255.845 138.955L260.04 162.242L261.081 162.068L256.886 138.78Z" fill="#005AEE"/>
<path d="M261.032 138.233L259.991 138.407L264.19 161.694L265.232 161.519L261.032 138.233Z" fill="#005AEE"/>
<path d="M263.806 137.654L262.11 137.938L266.31 161.225L268.005 160.941L263.806 137.654Z" fill="#005AEE"/>
<path d="M265.755 137.427L264.714 137.602L268.914 160.888L269.955 160.713L265.755 137.427Z" fill="#005AEE"/>
<path d="M254.731 139.219L252.742 139.552L256.941 162.838L258.931 162.505L254.731 139.219Z" fill="#005AEE"/>
<path d="M269.71 136.717L267.066 137.159L271.266 160.446L273.909 160.003L269.71 136.717Z" fill="#005AEE"/>
<path d="M272.05 136.403L271.008 136.577L275.204 159.864L276.245 159.69L272.05 136.403Z" fill="#005AEE"/>
<path d="M275.278 135.762L273.289 136.095L277.488 159.382L279.477 159.048L275.278 135.762Z" fill="#005AEE"/>
<path d="M278.829 135.095L276.186 135.538L280.386 158.824L283.029 158.381L278.829 135.095Z" fill="#005AEE"/>
<path d="M281.505 134.5L280.459 134.673L284.628 158.072L285.674 157.899L281.505 134.5Z" fill="#005AEE"/>
<path d="M286.484 133.976L285.443 134.151L289.643 157.437L290.684 157.263L286.484 133.976Z" fill="#005AEE"/>
<path d="M288.563 133.666L287.522 133.84L291.718 157.127L292.759 156.953L288.563 133.666Z" fill="#005AEE"/>
<path d="M293.411 132.878L291.716 133.161L295.912 156.448L297.607 156.165L293.411 132.878Z" fill="#005AEE"/>
<path d="M295.384 132.466L294.342 132.641L298.542 155.927L299.583 155.753L295.384 132.466Z" fill="#005AEE"/>
<path d="M284.37 134.245L282.381 134.578L286.581 157.865L288.57 157.532L284.37 134.245Z" fill="#005AEE"/>
<path d="M286.939 58.8373L121.016 86.6299L124.012 103.239L289.935 75.4465L286.939 58.8373Z" fill="#C6C6C6"/>
<path d="M207.55 103.246L126.464 116.828L128.088 125.834L209.174 112.252L207.55 103.246Z" fill="#C6C6C6"/>
<path d="M230.974 118.419L129.49 135.418L131.114 144.424L232.598 127.425L230.974 118.419Z" fill="#C6C6C6"/>
<path d="M301.734 111.971L244.093 121.51L245.706 130.559L303.347 121.02L301.734 111.971Z" fill="#C6C6C6"/>
<path d="M209.756 425.216C209.756 425.216 209.946 434.357 208.834 436.525C209.227 436.939 209.71 437.264 210.249 437.477C210.788 437.689 211.37 437.783 211.951 437.752C214.732 437.66 217.496 437.301 220.203 436.682C219.295 433.665 222.506 425.674 222.357 423.95C219.327 424.72 216.256 425.33 213.157 425.778C209.837 426.104 209.756 425.216 209.756 425.216Z" fill="#FFCB05"/>
<path d="M211.423 443.001C206.545 443.333 201.647 443.298 196.775 442.897C196.696 443.249 196.656 443.608 196.653 443.968C196.653 445.861 216.612 445.848 219.986 443.968C220.435 443.668 220.796 443.262 221.034 442.788C221.271 442.315 221.377 441.79 221.341 441.265C218.09 442.106 214.773 442.687 211.423 443.001V443.001Z" fill="#005AEE"/>
<path d="M211.422 443.001C214.771 442.709 218.088 442.15 221.341 441.33C221.348 440.049 221.076 438.781 220.542 437.608C220.411 437.307 220.302 436.997 220.216 436.681C217.509 437.301 214.745 437.659 211.964 437.752C211.383 437.783 210.802 437.688 210.263 437.476C209.724 437.264 209.241 436.939 208.848 436.525L208.767 436.655C208.225 437.491 206.653 438.092 204.485 438.966C201.355 440.507 197.466 439.711 196.775 442.884C201.647 443.29 206.544 443.329 211.422 443.001Z" fill="#1E1240"/>
<path d="M254.389 425.216C254.389 425.216 254.579 434.357 253.468 436.525C253.86 436.939 254.343 437.264 254.882 437.477C255.421 437.689 256.003 437.783 256.584 437.752C259.365 437.66 262.129 437.301 264.836 436.682C263.928 433.665 267.139 425.674 266.99 423.95C263.96 424.72 260.889 425.33 257.79 425.778C254.47 426.104 254.389 425.216 254.389 425.216Z" fill="#FFCB05"/>
<path d="M256.042 443.001C251.164 443.333 246.267 443.298 241.395 442.897C241.316 443.249 241.275 443.608 241.273 443.968C241.273 445.861 261.232 445.848 264.605 443.968C265.055 443.668 265.415 443.262 265.653 442.788C265.89 442.315 265.996 441.79 265.96 441.265C262.71 442.106 259.392 442.687 256.042 443.001V443.001Z" fill="#005AEE"/>
<path d="M256.042 443.001C259.39 442.709 262.708 442.15 265.96 441.33C265.967 440.049 265.695 438.781 265.161 437.608C265.03 437.307 264.922 436.997 264.836 436.681C262.129 437.301 259.365 437.659 256.584 437.752C256.003 437.783 255.421 437.688 254.882 437.476C254.343 437.264 253.86 436.939 253.468 436.525L253.386 436.655C252.844 437.491 251.272 438.092 249.104 438.966C245.974 440.507 242.086 439.711 241.395 442.884C246.267 443.29 251.164 443.329 256.042 443.001V443.001Z" fill="#1E1240"/>
<path d="M208.225 271.768C210.704 265.422 271.475 277.488 272.397 279.969C281.488 304.466 269.199 418.256 267.058 429.591C266.38 433.221 254.701 433.129 251.462 430.896C242.357 424.472 240.988 297.558 233.549 310.878C232.425 312.889 232.438 411.427 221.124 431.34C219.444 434.305 213.523 433.286 211.504 433.286C196.504 433.247 202.398 283.077 208.225 271.768Z" fill="#1E1240"/>
<path d="M276.909 219.078C273.996 211.557 260.73 205.942 252.519 204.479C240.69 201.868 223.943 206.046 218.279 208.397C202.493 215.122 208.144 246.553 206.477 266.637C205.393 279.695 201.504 282.528 205.217 288.196C209.146 293.315 227.506 301.019 250.446 299.491C277.329 297.689 281.299 295.9 278.331 269C275.635 245.26 282.071 232.45 276.909 219.078Z" fill="#D95F76"/>
<path d="M254.755 190.115C254.755 190.115 257.112 184.5 252.627 183.246C249.796 182.463 249.308 182.646 249.308 182.646C248.935 182.033 248.426 181.507 247.816 181.108C247.207 180.708 246.513 180.444 245.785 180.334C245.181 180.209 244.55 180.296 244.008 180.582C243.466 180.867 243.048 181.331 242.831 181.888C242.076 181.695 241.274 181.776 240.577 182.115C239.88 182.455 239.337 183.029 239.051 183.729C237.818 186.341 239.511 189.475 243.115 190.258L245.243 190.755C244.823 194.045 245.731 198.968 248.684 199.125C253.115 199.399 254.755 190.115 254.755 190.115Z" fill="#311E69"/>
<path d="M249.918 193.262L251.069 206.046C250.852 207.561 243.942 209.389 241.747 207.143C241.097 206.477 243.292 195.495 243.292 195.495L249.918 193.262Z" fill="#FFCB05"/>
<path d="M243.224 195.861C243.034 196.814 242.519 199.517 242.113 202.037C243.39 201.975 244.628 201.593 245.704 200.927C247.312 199.94 248.47 198.399 248.942 196.618C248.942 196.618 245.419 196.017 243.224 195.861Z" fill="#311E69"/>
<path d="M248.562 189.958L249.199 196.305C249.201 197.306 248.804 198.27 248.091 198.999C247.378 199.728 246.402 200.165 245.365 200.222C243.697 200.298 242.034 200.008 240.5 199.373C238.807 198.799 238.278 196.984 238.793 194.777C239.386 192.428 240.389 190.193 241.76 188.169C243.712 185.283 247.831 185.858 248.562 189.958Z" fill="#FFCB05"/>
<path d="M243.481 194.006C243.481 194.006 240.324 192.7 239.958 193.353C239.958 193.353 239.769 193.758 240.636 194.137C241.088 194.33 241.581 194.42 242.075 194.397C242.569 194.374 243.051 194.24 243.481 194.006V194.006Z" fill="white"/>
<path d="M240.473 197.036C242.519 197.036 243.346 200.261 247.451 198.342C248.234 197.784 248.835 197.023 249.186 196.148V196.292C249.187 197.293 248.791 198.258 248.078 198.986C247.365 199.715 246.389 200.152 245.351 200.209C243.684 200.286 242.02 199.995 240.487 199.36C239.996 199.187 239.564 198.884 239.241 198.488C238.918 198.091 238.716 197.615 238.658 197.114C239.264 197.143 239.872 197.117 240.473 197.036V197.036Z" fill="#AD263D"/>
<path d="M248.834 188.274C248.055 189.557 247.449 190.93 247.031 192.361C247.031 193.236 248.386 193.145 249.104 191.943C249.823 190.742 250.067 188.391 248.834 188.274Z" fill="#311E69"/>
<path d="M248.264 192.727C248.534 192.431 248.774 192.112 248.983 191.773C249.389 191.133 250.134 190.272 250.825 191.316C251.842 192.831 249.47 196.148 247.695 195.443C246.34 194.92 247.546 193.458 248.264 192.727Z" fill="#FFCB05"/>
<path d="M276.909 219.078C274.28 212.275 263.156 207.026 254.931 205.002C256.205 213.489 258.427 230.374 258.278 243.628C258.129 256.882 255.568 284.461 254.497 299.269C277.667 297.506 281.069 294.542 278.264 269.078C275.635 245.26 282.071 232.45 276.909 219.078Z" fill="#AA3766"/>
<path d="M264.253 233.09L206.707 245.874C206.707 249.152 206.707 252.403 206.707 255.602C216.976 255.021 227.126 253.178 236.91 250.118C247.346 246.71 256.741 240.859 264.253 233.09V233.09Z" fill="#311E69"/>
<path d="M180.19 220.136C178.063 220.841 176.125 221.442 174.432 221.821C175.854 225.738 181.207 239.332 188.185 244.973C190.786 244.425 193.388 243.772 195.962 243.014L180.19 220.136Z" fill="#311E69"/>
<path d="M270.987 216.884C262.519 203.147 218.834 227.527 208.984 226.508C199.133 225.49 184.77 165.474 171.6 167.394C158.429 169.313 173.185 241.76 199.404 249.452C225.623 257.143 281.014 233.168 270.987 216.884Z" fill="#D95F76"/>
<path d="M199.404 249.452C221.802 255.981 265.527 239.476 271.502 224.354C264.348 229.133 250.012 238.405 243.847 240.102C235.46 242.401 216.571 245.992 202.019 243.811C187.466 241.63 188.469 225.098 179.973 214.508C174.147 207.261 169.255 191.904 166.749 182.92C167.751 205.158 180.61 243.941 199.404 249.452Z" fill="#AA3766"/>
<path d="M174.066 167.263C174.066 167.263 172.711 158.579 170.448 158.266C168.185 157.952 162.752 156.62 162.901 157.613C163.05 158.605 167.128 159.167 167.128 159.167C167.128 159.167 161.573 158.984 161.261 159.532C160.95 160.081 161.776 160.499 161.776 160.499C161.414 160.781 161.181 161.189 161.126 161.635C161.126 162.262 165.651 163.358 165.651 163.358C165.651 163.358 165.326 172.303 171.166 171.585C177.006 170.867 174.066 167.263 174.066 167.263Z" fill="#FFCB05"/>
<path d="M120.205 473.61C120.205 473.61 61.5752 415.005 65.4098 394.046C69.2444 373.088 92.672 405.054 97.1028 397.232C101.534 389.41 55.6811 357.418 71.1008 351.019C86.5204 344.62 98.2004 369.47 99.6502 360.447C101.1 351.424 68.838 314.299 85.0977 305.315C101.357 296.331 97.8887 339.841 109.135 338.196C120.381 336.55 106.777 320.254 124.663 324.276C142.549 328.298 107.861 384.709 122.319 392.74C136.777 400.771 143.782 359.05 157.955 373.623C172.128 388.196 143.863 499.348 120.205 473.61Z" fill="#E4E4E4"/>
<path d="M135.226 54.1378L135.538 54.0874C136.918 53.8646 137.594 54.7258 137.877 56.3537C138.047 57.3322 138.076 57.8616 137.887 58.364C137.698 58.8663 137.242 59.118 136.418 59.2511L136.123 59.2987L135.226 54.1378ZM134.15 48.0533C134.367 48.0182 134.532 47.9916 134.637 47.9835C134.742 47.9666 134.882 47.9529 135.051 47.9522C135.404 47.9308 135.531 47.9906 135.779 48.1374C136.127 48.3394 136.284 48.7858 136.456 49.5681C136.571 50.2262 136.581 50.6964 136.446 51.1543C136.319 51.6022 135.968 51.8904 135.387 51.9842L134.849 52.0711L134.15 48.0533ZM137.204 61.412C140.293 60.9132 141.521 59.2016 140.977 56.0756C140.599 53.9022 139.444 52.7446 137.509 52.5941C138.269 52.1954 138.803 51.7264 139.103 51.1971C139.412 50.6665 139.492 49.9949 139.35 49.1809C138.966 47.1776 138.103 46.2132 136.768 45.9213C135.864 45.7022 135.015 45.7415 133.861 45.9278L130.642 46.4476L133.352 62.0341L137.204 61.412ZM146.14 48.601L147.935 54.2578L146.321 54.5184L146.14 48.601ZM146.413 59.9249L146.441 56.4931L148.48 56.1638L149.702 59.3939L152.817 58.8909L146.74 43.8481L143.947 44.2992L143.281 60.4307L146.413 59.9249ZM142.647 41.0817C142.757 41.7138 143.055 42.1998 143.532 42.5322C144.009 42.8647 144.573 42.9784 145.215 42.8747C145.857 42.771 146.352 42.4864 146.691 42.0222C147.029 41.5581 147.147 41.0049 147.037 40.3728L145.545 40.6138C145.63 41.054 145.551 41.7256 145.033 41.827C144.51 41.8937 144.199 41.2851 144.139 40.8407L142.647 41.0817ZM146.155 40.1235L144.31 36.4867L141.308 36.9714L144.377 40.4107L146.155 40.1235ZM157.592 58.1198L156.089 49.4693L161.011 57.5678L163.198 57.2147L160.486 41.6195L157.866 42.0427L159.284 50.1996L154.439 42.5961L152.165 42.9632L154.877 58.5583L157.592 58.1198ZM164.904 51.9271C165.14 53.3847 165.836 54.8746 166.921 55.7767C167.635 56.3468 168.668 56.6429 169.787 56.4622C170.308 56.3781 170.789 56.167 171.239 55.836C171.689 55.4964 172.003 55.0984 172.2 54.6393L172.789 55.666L174.958 55.3157L173.564 47.2973L168.618 48.0959L169.011 50.3559L170.799 50.0673L171.015 51.3142C171.291 52.8989 170.952 53.7726 169.989 53.9281C169.026 54.0836 168.408 53.4001 168.141 51.8674L166.971 45.1392C166.705 43.6066 167.057 42.7574 168.02 42.6019C168.815 42.509 169.265 42.8904 169.546 43.5839C169.745 44.0593 169.824 44.4115 169.919 44.957L170.109 46.0481L173.128 45.5605L172.969 44.6426C172.446 41.6379 170.894 39.6363 167.597 40.1687C164.525 40.6647 163.31 42.7571 163.95 46.4372L164.904 51.9271ZM188.292 53.1625L187.916 50.9977L184.81 51.4993L182.476 38.0776L179.318 38.5876L182.028 54.1741L188.292 53.1625ZM192.195 41.1641L193.991 46.8209L192.377 47.0815L192.195 41.1641ZM192.469 52.488L192.497 49.0562L194.536 48.7269L195.758 51.957L198.873 51.4541L192.796 36.4112L190.002 36.8623L189.337 52.9938L192.469 52.488ZM192.147 35.2963L193.885 31.0809L190.892 31.5642L190.377 35.5821L192.147 35.2963ZM204.091 50.6114L201.381 35.025L198.223 35.5349L200.932 51.1214L204.091 50.6114ZM213.538 49.086L214.117 43.6956L216.505 48.6068L219.481 48.1262L215.581 40.4147L216.806 32.5341L213.874 33.0077L213.104 37.9213L210.828 33.4995L207.826 33.9842L211.676 41.0985L210.553 49.5679L213.538 49.086ZM228.04 46.7442L227.664 44.5794L224.306 45.1216L223.472 40.3245L225.849 39.9406L225.464 37.7238L223.086 38.1077L222.349 33.8647L225.707 33.3225L225.33 31.1577L218.814 32.2099L221.524 47.7964L228.04 46.7442Z" fill="#005AEE"/>
</svg>
